<svg width="28" height="32" viewBox="0 0 28 32" fill="none" xmlns="http://www.w3.org/2000/svg">
<path d="M8.56163 3.00345C8.39299 2.06779 10.2676 1.48464 10.9171 1.31926C13.1594 0.748076 15.6313 0.591408 17.8975 1.12234C18.2812 1.213 18.6087 1.3432 18.88 1.51292C18.9685 1.56805 18.991 1.6326 18.9474 1.70658C18.9286 1.73922 18.9017 1.74793 18.8669 1.73269C16.8248 0.843818 13.9438 1.0266 11.8071 1.4422C10.9356 1.61193 9.00552 2.09281 8.63234 3.01106C8.62932 3.01851 8.62395 3.02477 8.61705 3.02889C8.61016 3.03301 8.60211 3.03478 8.59412 3.03392C8.58613 3.03305 8.57863 3.02962 8.57277 3.02412C8.56691 3.01862 8.563 3.01137 8.56163 3.00345Z" fill="white"/>
<path d="M17.9748 4.53423L17.6865 4.88347C17.6749 4.89661 17.6606 4.90683 17.6445 4.91326C17.6284 4.9197 17.6111 4.92216 17.594 4.92046C17.223 4.88021 17.0413 4.6822 16.7497 4.49942C16.7356 4.49046 16.7199 4.48449 16.7034 4.48187C16.6869 4.47925 16.6701 4.48004 16.654 4.48418C14.7565 4.97051 8.29614 6.01497 7.34852 3.39186C7.34669 3.38677 7.34683 3.38118 7.34889 3.37619C7.35096 3.37119 7.35482 3.36715 7.3597 3.36484C7.36459 3.36253 7.37017 3.36213 7.37534 3.3637C7.38051 3.36528 7.38491 3.36872 7.38768 3.37336C8.1275 4.61692 10.2806 4.77032 11.5427 4.77903C13.4299 4.79208 15.2788 4.53351 17.0892 4.0033C18.1782 3.68452 20.1126 2.96864 20.2747 1.69897C20.2746 1.69118 20.2776 1.68365 20.283 1.67804C20.2884 1.67243 20.2958 1.66919 20.3036 1.66905C20.3114 1.66891 20.3189 1.67186 20.3245 1.67727C20.3301 1.68268 20.3333 1.69009 20.3335 1.69788C20.3966 2.16426 20.2613 2.55956 19.9277 2.88377C19.9156 2.89549 19.9067 2.91 19.9018 2.92598C19.8969 2.94195 19.896 2.95887 19.8994 2.97516C20.0379 3.67582 20.0891 4.20857 20.0528 4.5734C19.9429 5.67661 18.5753 4.73116 18.1543 4.50051C18.1252 4.4845 18.0915 4.47911 18.0587 4.48526C18.026 4.49141 17.9963 4.50871 17.9748 4.53423Z" fill="white"/>
<path d="M5.90039 8.62943C5.92868 8.67658 5.96531 8.68419 6.01028 8.65228C8.10137 7.1846 10.818 5.96389 13.3802 5.73868C16.5549 5.45907 19.6067 6.81687 21.849 9.03089C21.8575 9.0393 21.8679 9.04548 21.8794 9.0489C21.8909 9.05232 21.903 9.05287 21.9147 9.05051C21.9264 9.04814 21.9374 9.04293 21.9466 9.03534C21.9558 9.02775 21.963 9.018 21.9676 9.00696C22.4409 7.86676 23.7856 6.21195 25.1956 7.00617C28.1364 8.66098 26.0878 11.9162 24.6244 13.7201C24.6134 13.7338 24.6054 13.7497 24.6007 13.7667C24.596 13.7837 24.5948 13.8015 24.5972 13.8191C24.8692 15.8895 25.1673 18.0306 25.1543 20.1184C25.1434 21.8701 25.3893 24.4954 26.5567 25.8782C27.6349 27.1566 29.0481 28.6242 26.8145 30.0245C24.9258 31.2082 22.9609 29.4108 21.6336 28.2565C21.4951 28.1354 21.3656 28.1444 21.2452 28.2837C19.9157 29.8232 17.9095 31.9578 15.6312 30.9362C14.6488 30.4955 13.8045 29.5893 12.9831 28.8581C12.9214 28.8028 12.8419 28.7711 12.7589 28.7687C12.6759 28.7663 12.5946 28.7934 12.5294 28.8451C10.7136 30.2997 8.56267 32.6269 6.58799 29.5925C6.23984 29.058 5.98489 28.6482 5.82315 28.3631C5.59141 27.9551 5.30854 28.0008 4.89075 28.1368C3.6744 28.5318 1.77153 29.2106 0.754273 28.0476C-0.665534 26.4265 0.225518 25.072 0.940317 23.4672C1.79909 21.5401 2.21905 19.5273 2.20019 17.429C2.18605 15.8666 2.63212 14.2314 3.17502 12.7746C3.18807 12.7398 3.18082 12.7093 3.15326 12.6832C1.33525 10.9936 0.666147 8.69253 2.57119 6.79075C3.70704 5.65708 5.38905 7.7819 5.90039 8.62943ZM12.0747 12.5124C11.943 12.1556 11.9702 12.0391 11.9898 11.7759C11.9927 11.741 11.9771 11.7247 11.943 11.7269C10.0093 11.8379 8.20581 12.3739 6.53251 13.3349C6.52569 13.3388 6.51982 13.3441 6.51534 13.3505C6.51086 13.357 6.50788 13.3643 6.50663 13.372C6.50538 13.3798 6.50588 13.3877 6.5081 13.3952C6.51032 13.4027 6.5142 13.4096 6.51945 13.4154C6.70948 13.6287 6.84258 13.8731 6.91874 14.1487C6.92962 14.1886 6.95355 14.1988 6.99055 14.1792C8.57246 13.3385 10.2545 12.8044 12.0366 12.5766C12.0765 12.5715 12.0892 12.5501 12.0747 12.5124ZM17.3415 12.6963C19.0584 13.1402 20.6936 13.7893 22.2472 14.6438C22.2539 14.6473 22.2613 14.6492 22.2688 14.6494C22.2763 14.6495 22.2838 14.6479 22.2906 14.6446C22.2974 14.6413 22.3033 14.6365 22.3079 14.6305C22.3124 14.6244 22.3155 14.6174 22.3168 14.61C22.3618 14.3482 22.4851 14.1328 22.6868 13.9638C22.7179 13.9369 22.7161 13.913 22.6813 13.892C21.0776 12.9182 19.2857 12.1327 17.4253 11.8237C17.3948 11.8186 17.3785 11.8317 17.3764 11.8629L17.3296 12.68C17.3292 12.6835 17.3302 12.6871 17.3324 12.6901C17.3346 12.6931 17.3378 12.6953 17.3415 12.6963ZM11.4621 13.8593C12.0475 14.9963 13.8241 14.733 14.6847 14.2173C14.7159 14.1984 14.7474 14.1977 14.7794 14.2151C15.6019 14.6492 16.6833 14.6448 17.2784 13.8093C17.2833 13.8022 17.2857 13.7937 17.2853 13.7851C17.2849 13.7765 17.2816 13.7683 17.2761 13.7617C17.2705 13.7551 17.2629 13.7506 17.2545 13.7488C17.2461 13.7469 17.2373 13.7479 17.2295 13.7516C16.3972 14.1737 15.5975 14.2292 14.8098 13.6559C14.7696 13.6264 14.7204 13.6118 14.6706 13.6146C14.6207 13.6174 14.5735 13.6373 14.5367 13.6711C13.6609 14.4784 12.5969 14.3141 11.51 13.8104C11.4462 13.7806 11.4302 13.7969 11.4621 13.8593Z" fill="white"/>
</svg>
