<!-- Copyright C 2022 bbjprojek labs -->
<svg width="50" height="50" viewBox="0 0 50 50" fill="none" xmlns="http://www.w3.org/2000/svg">
<path d="M24.7576 24.1669C25.5899 23.1426 26.206 22.0864 26.6061 20.9981C27.0062 19.9098 27.2063 18.6455 27.2063 17.2052C27.2063 15.7648 27.0062 14.5005 26.6061 13.4122C26.206 12.3239 25.5899 11.2677 24.7576 10.2434C27.1903 9.69929 29.3268 10.0674 31.1672 11.3477C33.0077 12.628 33.9279 14.5805 33.9279 17.2052C33.9279 19.8298 33.0077 21.7823 31.1672 23.0626C29.3268 24.3429 27.1903 24.711 24.7576 24.1669ZM35.1282 39.8188V35.3056C35.1282 33.6732 34.7121 32.1529 33.8799 30.7445C33.0477 29.3362 31.6073 28.1519 29.5588 27.1916C35.0962 27.8958 38.8812 28.9201 40.9137 30.2644C42.9462 31.6087 43.9624 33.2891 43.9624 35.3056V39.8188H35.1282ZM40.4095 25.9433V21.1421H35.6083V18.2614H40.4095V13.4602H43.2902V18.2614H48.0914V21.1421H43.2902V25.9433H40.4095ZM17.1238 24.4069C15.0112 24.4069 13.2828 23.7348 11.9385 22.3904C10.5941 21.0461 9.92197 19.3177 9.92197 17.2052C9.92197 15.0926 10.5941 13.3642 11.9385 12.0199C13.2828 10.6755 15.0112 10.0034 17.1238 10.0034C19.2363 10.0034 20.9647 10.6755 22.309 12.0199C23.6534 13.3642 24.3255 15.0926 24.3255 17.2052C24.3255 19.3177 23.6534 21.0461 22.309 22.3904C20.9647 23.7348 19.2363 24.4069 17.1238 24.4069ZM2 39.8188V35.3056C2 34.1854 2.29607 33.1691 2.88822 32.2569C3.48037 31.3447 4.27256 30.6645 5.26481 30.2164C7.56938 29.1921 9.62589 28.4559 11.4343 28.0078C13.2428 27.5597 15.1393 27.3357 17.1238 27.3357C19.1082 27.3357 20.9967 27.5597 22.7892 28.0078C24.5816 28.4559 26.6301 29.1921 28.9347 30.2164C29.9269 30.6645 30.7271 31.3447 31.3353 32.2569C31.9434 33.1691 32.2475 34.1854 32.2475 35.3056V39.8188H2Z" fill="white"/>
</svg>
