<!-- Copyright C 2022 bbjprojek labs -->
<svg width="50" height="50" viewBox="0 0 50 50" fill="none" xmlns="http://www.w3.org/2000/svg">
<path d="M24.7767 21.3601C29.5342 21.3601 31.0992 25.9191 31.0992 30.0409C31.0992 34.475 29.409 39.4087 24.7141 39.4087C19.8939 39.4087 18.2663 35.724 18.2663 30.0409C18.2663 23.2961 21.9597 21.3601 24.7767 21.3601ZM8 44.5465C8 46.1928 9.33461 47.5274 10.9809 47.5274H15.1602C16.8065 47.5274 18.1411 46.1928 18.1411 44.5465V43.8101C18.1411 43.5168 18.5326 43.3917 18.7168 43.6201C20.8171 46.225 23.7304 47.5274 27.218 47.5274C37.4218 47.5274 41.7411 38.8466 41.7411 29.6662C41.7411 21.2352 37.234 13.2413 28.0318 13.2413C24.3583 13.2413 21.3689 14.5015 19.2086 17.0218C19.0209 17.2407 18.6419 17.1132 18.6419 16.8248V4.98093C18.6419 3.33461 17.3073 2 15.661 2H10.9809C9.33461 2 8 3.33461 8 4.98093V44.5465Z" fill="white"/>
</svg>
