<!-- Copyright C 2022 bbjprojek labs -->
<svg width="50" height="50" viewBox="0 0 50 50" fill="none" xmlns="http://www.w3.org/2000/svg">
<path d="M10.3 46C8.55 46 7.0625 45.3875 5.8375 44.1625C4.6125 42.9375 4 41.45 4 39.7V10.3C4 8.55 4.6125 7.0625 5.8375 5.8375C7.0625 4.6125 8.55 4 10.3 4H39.7C41.45 4 42.9375 4.6125 44.1625 5.8375C45.3875 7.0625 46 8.55 46 10.3V39.7C46 41.45 45.3875 42.9375 44.1625 44.1625C42.9375 45.3875 41.45 46 39.7 46H10.3ZM10.3 42.85H39.7C40.61 42.85 41.3625 42.5437 41.9575 41.9312C42.5525 41.3187 42.85 40.575 42.85 39.7V10.3C42.85 9.39 42.5525 8.6375 41.9575 8.0425C41.3625 7.4475 40.61 7.15 39.7 7.15H10.3C9.425 7.15 8.68125 7.4475 8.06875 8.0425C7.45625 8.6375 7.15 9.39 7.15 10.3V39.7C7.15 40.575 7.45625 41.3187 8.06875 41.9312C8.68125 42.5437 9.425 42.85 10.3 42.85ZM13.66 37.075L20.8 29.935L24.6325 33.715L29.2 27.94L36.4975 37.075H13.66ZM16.6 20.275C15.585 20.275 14.7187 19.9162 14.0012 19.1987C13.2837 18.4812 12.925 17.615 12.925 16.6C12.925 15.585 13.2837 14.7187 14.0012 14.0012C14.7187 13.2837 15.585 12.925 16.6 12.925C17.615 12.925 18.4812 13.2837 19.1987 14.0012C19.9162 14.7187 20.275 15.585 20.275 16.6C20.275 17.615 19.9162 18.4812 19.1987 19.1987C18.4812 19.9162 17.615 20.275 16.6 20.275Z" fill="white" stroke="white" stroke-width="2"/>
</svg>
