<svg width="50" height="50" viewBox="0 0 50 50" fill="none" xmlns="http://www.w3.org/2000/svg">
<g clip-path="url(#clip0_2275_36)">
<path d="M7 34.375V13C7 11.4625 7.35625 10.1219 8.06875 8.97813C8.78125 7.83438 9.87812 6.89688 11.3594 6.16563C12.8406 5.43438 14.7156 4.89062 16.9844 4.53437C19.2531 4.17812 21.925 4 25 4C28.225 4 30.9719 4.16875 33.2406 4.50625C35.5094 4.84375 37.3656 5.37813 38.8094 6.10938C40.2531 6.84063 41.3125 7.76875 41.9875 8.89375C42.6625 10.0188 43 11.3875 43 13V34.375C43 36.5875 42.2406 38.4531 40.7219 39.9719C39.2031 41.4906 37.3375 42.25 35.125 42.25L38.5 45.625V46.75H34.5625L30.0625 42.25H19.9375L15.4375 46.75H11.5V45.625L14.875 42.25C12.6625 42.25 10.7969 41.4906 9.27812 39.9719C7.75937 38.4531 7 36.5875 7 34.375ZM10.375 22.8438H23.5375V14.125H10.375V22.8438ZM26.9125 22.8438H39.625V14.125H26.9125V22.8438ZM16.8438 35.7813C17.7063 35.7813 18.4375 35.4813 19.0375 34.8813C19.6375 34.2813 19.9375 33.55 19.9375 32.6875C19.9375 31.825 19.6375 31.0938 19.0375 30.4938C18.4375 29.8938 17.7063 29.5938 16.8438 29.5938C15.9812 29.5938 15.25 29.8938 14.65 30.4938C14.05 31.0938 13.75 31.825 13.75 32.6875C13.75 33.55 14.05 34.2813 14.65 34.8813C15.25 35.4813 15.9812 35.7813 16.8438 35.7813ZM33.1562 35.7813C34.0187 35.7813 34.75 35.4813 35.35 34.8813C35.95 34.2813 36.25 33.55 36.25 32.6875C36.25 31.825 35.95 31.0938 35.35 30.4938C34.75 29.8938 34.0187 29.5938 33.1562 29.5938C32.2938 29.5938 31.5625 29.8938 30.9625 30.4938C30.3625 31.0938 30.0625 31.825 30.0625 32.6875C30.0625 33.55 30.3625 34.2813 30.9625 34.8813C31.5625 35.4813 32.2938 35.7813 33.1562 35.7813Z" fill="white"/>
<g filter="url(#filter0_d_2275_36)">
<path d="M33.8009 46.6768L29.4874 45.6801C29.0908 45.5884 28.779 45.3553 28.5522 44.9809C28.3254 44.6064 28.2616 44.2043 28.3609 43.7746L29.3691 39.4115C30.1153 39.4969 30.8051 39.356 31.4384 38.9887C32.0716 38.6215 32.4703 38.0825 32.6346 37.3719C32.7988 36.6612 32.6769 36.002 32.269 35.3942C31.861 34.7863 31.303 34.3571 30.5949 34.1064L31.6031 29.7433C31.691 29.3632 31.9189 29.0546 32.2871 28.8176C32.6552 28.5806 33.0376 28.508 33.4342 28.5996L37.7973 29.6078C38.1319 28.9887 38.5709 28.52 39.1145 28.2017C39.6582 27.8834 40.2605 27.8006 40.9216 27.9534C41.5661 28.1023 42.0959 28.4467 42.5108 28.9865C42.9258 29.5263 43.1478 30.1478 43.1768 30.8508L47.5399 31.859C47.92 31.9469 48.2276 32.179 48.4627 32.5554C48.6978 32.9318 48.7714 33.31 48.6836 33.6901L47.6754 38.0532C48.2945 38.3878 48.7555 38.8599 49.0586 39.4696C49.3616 40.0793 49.4387 40.7065 49.2897 41.351C49.137 42.0121 48.7983 42.517 48.2738 42.8659C47.7492 43.2147 47.1354 43.4037 46.4323 43.4327L45.4242 47.7958C45.3325 48.1924 45.0994 48.5042 44.725 48.731C44.3505 48.9578 43.9732 49.0273 43.593 48.9395L39.2795 47.9428C39.3802 47.1304 39.2142 46.4174 38.7815 45.8038C38.3487 45.1903 37.777 44.8014 37.0664 44.6372C36.4384 44.4921 35.8036 44.6022 35.1621 44.9675C34.5206 45.3328 34.0669 45.9026 33.8009 46.6768Z" fill="white"/>
</g>
</g>
<defs>
<filter id="filter0_d_2275_36" x="26.4255" y="25.989" width="26.7181" height="26.7674" filterUnits="userSpaceOnUse" color-interpolation-filters="sRGB">
<feFlood flood-opacity="0" result="BackgroundImageFix"/>
<feColorMatrix in="SourceAlpha" type="matrix" values="0 0 0 0 0 0 0 0 0 0 0 0 0 0 0 0 0 0 127 0" result="hardAlpha"/>
<feOffset dx="0.945042" dy="0.945042"/>
<feGaussianBlur stdDeviation="1.41756"/>
<feComposite in2="hardAlpha" operator="out"/>
<feColorMatrix type="matrix" values="0 0 0 0 0 0 0 0 0 0 0 0 0 0 0 0 0 0 0.51 0"/>
<feBlend mode="normal" in2="BackgroundImageFix" result="effect1_dropShadow_2275_36"/>
<feBlend mode="normal" in="SourceGraphic" in2="effect1_dropShadow_2275_36" result="shape"/>
</filter>
<clipPath id="clip0_2275_36">
<rect width="50" height="50" fill="white"/>
</clipPath>
</defs>
</svg>
