<!-- Copyright C 2022 bbjprojek labs -->
<svg width="50" height="50" viewBox="0 0 50 50" fill="none" xmlns="http://www.w3.org/2000/svg">
<path d="M23.2619 36.587H13.413C10.2073 36.587 7.47465 35.4572 5.21519 33.1978C2.95572 30.9383 1.82599 28.2057 1.82599 25C1.82599 21.7942 2.95572 19.0616 5.21519 16.8022C7.47465 14.5427 10.2073 13.413 13.413 13.413H23.2619V16.8891H13.413C11.1728 16.8891 9.26098 17.6808 7.67743 19.2644C6.09387 20.848 5.30209 22.7598 5.30209 25C5.30209 27.2401 6.09387 29.152 7.67743 30.7355C9.26098 32.3191 11.1728 33.1109 13.413 33.1109H23.2619V36.587ZM16.0201 26.738V23.2619H33.9799V26.738H16.0201ZM26.738 36.587V33.1109H36.587C38.8272 33.1109 40.739 32.3191 42.3226 30.7355C43.9061 29.152 44.6979 27.2401 44.6979 25C44.6979 22.7598 43.9061 20.848 42.3226 19.2644C40.739 17.6808 38.8272 16.8891 36.587 16.8891H26.738V13.413H36.587C39.7927 13.413 42.5253 14.5427 44.7848 16.8022C47.0443 19.0616 48.174 21.7942 48.174 25C48.174 28.2057 47.0443 30.9383 44.7848 33.1978C42.5253 35.4572 39.7927 36.587 36.587 36.587H26.738Z" fill="white"/>
</svg>
