<svg width="50" height="50" viewBox="0 0 50 50" fill="none" xmlns="http://www.w3.org/2000/svg">
<path d="M45.4848 19.4698L41.3794 16.038V7.2715C41.3794 6.49691 40.7611 5.8693 39.9866 5.8693H34.3778C33.6033 5.8693 32.9757 6.49691 32.9757 7.2715V8.9894L28.1927 4.98209C26.6307 3.6721 24.3641 3.67336 22.8021 4.9815L5.5108 19.4689C3.73126 20.9544 3.4851 23.6005 4.97859 25.3903C6.24717 26.9049 8.37046 27.2889 10.0733 26.4454V27.6278C8.44471 28.2084 7.26901 29.7503 7.26901 31.5759C7.26901 33.4016 8.44479 34.9434 10.0733 35.5241V38.8453C8.44471 39.4259 7.26901 40.9678 7.26901 42.7935C7.26901 45.113 9.15597 47 11.4755 47C23.7167 47 27.2729 47 39.519 47C41.8386 47 43.7255 45.113 43.7255 42.7935C43.7255 40.9679 42.5404 39.426 40.9118 38.8453V35.5241C42.5404 34.9435 43.7255 33.4016 43.7255 31.5759C43.7255 29.7503 42.5404 28.2085 40.9118 27.6278V26.4432C41.5039 26.7379 42.152 26.8956 42.7921 26.8956C43.9971 26.8956 45.1916 26.3821 46.0168 25.3889C47.5057 23.6054 47.2676 20.958 45.4848 19.4698ZM17.0843 38.5869H12.8685V34.4388H17.0843V38.5869ZM31.1061 44.1956H19.8793C19.8793 40.7185 19.8793 31.2538 19.8793 30.3491C19.8793 29.5745 20.5163 28.9469 21.2908 28.9469H29.7039C30.4785 28.9469 31.1061 29.5745 31.1061 30.3491C31.1061 33.8821 31.1061 40.8795 31.1061 44.1956ZM38.1169 38.5869H33.9011V34.4388H38.1169V38.5869ZM22.6836 21.7607V18.9564C22.6836 17.4076 23.9485 16.1521 25.4974 16.1521C27.0462 16.1521 28.3017 17.4076 28.3017 18.9564V21.7607C26.2844 21.7607 24.5865 21.7607 22.6836 21.7607ZM44.1929 23.6303C43.695 24.23 42.4991 24.2707 41.8961 23.7699L26.3978 10.7865C25.8766 10.3501 25.118 10.3501 24.5967 10.7865C24.0471 11.2471 9.65206 23.3089 9.10339 23.7662C8.42875 24.3253 7.57068 24.1163 7.13027 23.5915C6.6372 23.0004 6.71085 22.1191 7.30966 21.6206L24.6031 7.13091C25.1216 6.6973 25.8729 6.6968 26.3915 7.13141L43.685 21.6206L43.6872 21.6225C44.2802 22.1171 44.6923 23.033 44.1929 23.6303Z" fill="white"/>
</svg>
