<svg width="24" height="24" viewBox="0 0 24 24" fill="none" xmlns="http://www.w3.org/2000/svg">
<path d="M4.88235 22C4.07843 22 3.39706 21.7206 2.83824 21.1618C2.27941 20.6029 2 19.9216 2 19.1176C2 18.3137 2.27941 17.6324 2.83824 17.0735C3.39706 16.5147 4.07843 16.2353 4.88235 16.2353C5.68627 16.2353 6.36765 16.5147 6.92647 17.0735C7.48529 17.6324 7.76471 18.3137 7.76471 19.1176C7.76471 19.9216 7.48529 20.6029 6.92647 21.1618C6.36765 21.7206 5.68627 22 4.88235 22ZM19.3529 22C19.3529 19.6078 18.8971 17.3578 17.9853 15.25C17.0735 13.1422 15.8333 11.3039 14.2647 9.73529C12.6961 8.16667 10.8578 6.92647 8.75 6.01471C6.64216 5.10294 4.39216 4.64706 2 4.64706V2C4.76471 2 7.35784 2.52451 9.77941 3.57353C12.201 4.62255 14.3186 6.05392 16.1324 7.86765C17.9461 9.68137 19.3775 11.799 20.4265 14.2206C21.4755 16.6422 22 19.2353 22 22H19.3529ZM12.3529 22C12.3529 18.902 11.402 16.3627 9.5 14.3824C7.59804 12.402 5.09804 11.4118 2 11.4118V8.76471C3.90196 8.76471 5.64706 9.09804 7.23529 9.76471C8.82353 10.4314 10.1912 11.3529 11.3382 12.5294C12.4853 13.7059 13.3824 15.1029 14.0294 16.7206C14.6765 18.3382 15 20.098 15 22H12.3529Z" fill="white"/>
</svg>
