<svg width="192" height="192" viewBox="0 0 192 192" fill="none" xmlns="http://www.w3.org/2000/svg">
<path d="M184.318 77.6767L184.061 77.0202L159.193 12.1184C158.687 10.8463 157.791 9.76724 156.634 9.03596C155.476 8.31709 154.125 7.97086 152.764 8.04402C151.403 8.11718 150.097 8.60619 149.023 9.44504C147.96 10.308 147.19 11.4773 146.816 12.7938L130.024 64.1673H62.0303L45.2388 12.7938C44.8746 11.4701 44.1023 10.2949 43.0316 9.43553C41.9574 8.59667 40.6515 8.10766 39.2905 8.03451C37.9295 7.96135 36.5788 8.30757 35.4208 9.02644C34.2661 9.76068 33.371 10.8388 32.8616 12.1088L7.94545 76.9822L7.6981 77.6386C4.11815 86.9925 3.67627 97.2566 6.43907 106.883C9.20186 116.51 15.0196 124.978 23.015 131.01L23.1006 131.077L23.329 131.238L61.2122 159.608L79.954 173.793L91.3703 182.412C92.7057 183.426 94.3363 183.975 96.013 183.975C97.6896 183.975 99.3202 183.426 100.656 182.412L112.072 173.793L130.814 159.608L168.925 131.067L169.02 130.991C176.998 124.958 182.802 116.499 185.561 106.885C188.32 97.2711 187.883 87.0216 184.318 77.6767Z" fill="white"/>
</svg>
