<svg width="192" height="192" viewBox="0 0 192 192" fill="none" xmlns="http://www.w3.org/2000/svg">
<g clip-path="url(#clip0_2_23)">
<path d="M188.83 76.72L188.56 76.03L162.42 7.81C161.888 6.47292 160.946 5.33867 159.73 4.57C158.513 3.81438 157.093 3.45045 155.662 3.52735C154.232 3.60425 152.859 4.11826 151.73 5C150.613 5.90705 149.803 7.13614 149.41 8.52L131.76 62.52H60.29L42.64 8.52C42.2572 7.1286 41.4454 5.89335 40.32 4.99C39.1908 4.10826 37.8182 3.59424 36.3876 3.51735C34.957 3.44045 33.5372 3.80438 32.32 4.56C31.1063 5.33178 30.1654 6.46503 29.63 7.79999L3.44 75.99L3.18 76.68C-0.582975 86.5121 -1.04745 97.301 1.8566 107.42C4.76064 117.539 10.8758 126.44 19.28 132.78L19.37 132.85L19.61 133.02L59.43 162.84L79.13 177.75L91.13 186.81C92.5337 187.876 94.2476 188.453 96.01 188.453C97.7724 188.453 99.4863 187.876 100.89 186.81L112.89 177.75L132.59 162.84L172.65 132.84L172.75 132.76C181.135 126.419 187.236 117.527 190.136 107.422C193.036 97.3162 192.577 86.5427 188.83 76.72Z" fill="#FCA326"/>
</g>
<defs>
<clipPath id="clip0_2_23">
<rect width="192" height="192" fill="white"/>
</clipPath>
</defs>
</svg>
