<svg width="24" height="24" viewBox="0 0 24 24" fill="none" xmlns="http://www.w3.org/2000/svg">
<path d="M11.9167 22.8333C10.3883 22.8333 8.96007 22.5468 7.63187 21.9736C6.30368 21.4005 5.14833 20.6227 4.16583 19.6402C3.18333 18.6577 2.41007 17.4978 1.84604 16.1605C1.28201 14.8232 1 13.3904 1 11.8621C1 10.3338 1.28201 8.91004 1.84604 7.59094C2.41007 6.27184 3.18333 5.12104 4.16583 4.13854C5.14833 3.15604 6.30368 2.38733 7.63187 1.8324C8.96007 1.27747 10.3883 1 11.9167 1C13.445 1 14.8733 1.27747 16.2015 1.8324C17.5297 2.38733 18.685 3.15604 19.6675 4.13854C20.65 5.12104 21.4233 6.27184 21.9873 7.59094C22.5513 8.91004 22.8333 10.3338 22.8333 11.8621C22.8333 13.3904 22.5513 14.8232 21.9873 16.1605C21.4233 17.4978 20.65 18.6577 19.6675 19.6402C18.685 20.6227 17.5297 21.4005 16.2015 21.9736C14.8733 22.5468 13.445 22.8333 11.9167 22.8333ZM11.9167 21.2504C12.5535 20.5954 13.0857 19.8449 13.5132 18.9989C13.9408 18.1528 14.291 17.1476 14.564 15.9831H9.29667C9.55139 17.0748 9.89254 18.0573 10.3201 18.9306C10.7477 19.804 11.2799 20.5772 11.9167 21.2504ZM9.59688 20.9229C9.14201 20.2315 8.75083 19.4856 8.42333 18.685C8.09583 17.8844 7.82292 16.9838 7.60458 15.9831H3.51083C4.20222 17.2749 5.00278 18.2893 5.9125 19.0261C6.82222 19.763 8.05035 20.3953 9.59688 20.9229ZM14.2637 20.8956C15.5738 20.4772 16.7518 19.8494 17.798 19.0125C18.8442 18.1756 19.6857 17.1658 20.3225 15.9831H16.256C16.0195 16.9656 15.742 17.8572 15.4236 18.6577C15.1052 19.4583 14.7186 20.2042 14.2637 20.8956ZM2.965 14.3456H7.30438C7.24979 13.8544 7.21795 13.4132 7.20885 13.022C7.19976 12.6308 7.19521 12.2442 7.19521 11.8621C7.19521 11.4072 7.20431 11.0024 7.2225 10.6476C7.24069 10.2928 7.27708 9.89708 7.33167 9.46042H2.965C2.83764 9.89708 2.75122 10.2883 2.70573 10.634C2.66024 10.9797 2.6375 11.389 2.6375 11.8621C2.6375 12.3351 2.66024 12.7582 2.70573 13.1311C2.75122 13.5041 2.83764 13.909 2.965 14.3456V14.3456ZM8.99646 14.3456H14.8642C14.9369 13.7816 14.9824 13.3222 15.0006 12.9674C15.0188 12.6126 15.0279 12.2442 15.0279 11.8621C15.0279 11.4982 15.0188 11.148 15.0006 10.8114C14.9824 10.4748 14.9369 10.0244 14.8642 9.46042H8.99646C8.92368 10.0244 8.87819 10.4748 8.86 10.8114C8.84181 11.148 8.83271 11.4982 8.83271 11.8621C8.83271 12.2442 8.84181 12.6126 8.86 12.9674C8.87819 13.3222 8.92368 13.7816 8.99646 14.3456V14.3456ZM16.5017 14.3456H20.8683C20.9957 13.909 21.0821 13.5041 21.1276 13.1311C21.1731 12.7582 21.1958 12.3351 21.1958 11.8621C21.1958 11.389 21.1731 10.9797 21.1276 10.634C21.0821 10.2883 20.9957 9.89708 20.8683 9.46042H16.529C16.5835 10.0972 16.6199 10.5839 16.6381 10.9205C16.6563 11.2571 16.6654 11.571 16.6654 11.8621C16.6654 12.2624 16.6518 12.6399 16.6245 12.9947C16.5972 13.3495 16.5563 13.7998 16.5017 14.3456V14.3456ZM16.2288 7.82292H20.3225C19.7221 6.5675 18.8988 5.52132 17.8526 4.68438C16.8064 3.84743 15.601 3.25611 14.2365 2.91042C14.6913 3.58361 15.078 4.31139 15.3964 5.09375C15.7148 5.87611 15.9922 6.78583 16.2288 7.82292V7.82292ZM9.29667 7.82292H14.5913C14.3911 6.85861 14.0545 5.92615 13.5815 5.02552C13.1084 4.1249 12.5535 3.32889 11.9167 2.6375C11.3344 3.12875 10.8432 3.77465 10.4429 4.57521C10.0426 5.37576 9.66056 6.45833 9.29667 7.82292V7.82292ZM3.51083 7.82292H7.63187C7.83201 6.84042 8.08674 5.96253 8.39604 5.18927C8.70535 4.41601 9.09653 3.66549 9.56958 2.93771C8.205 3.2834 7.01326 3.86563 5.99437 4.68438C4.97549 5.50313 4.14764 6.54931 3.51083 7.82292V7.82292Z" fill="white"/>
</svg>
