<svg width="50" height="50" viewBox="0 0 50 50" fill="none" xmlns="http://www.w3.org/2000/svg">
<path d="M25 46.8187C21.9692 46.8187 19.121 46.2436 16.4553 45.0934C13.7897 43.9431 11.471 42.3821 9.49913 40.4102C7.52728 38.4384 5.96624 36.1197 4.816 33.454C3.66576 30.7884 3.09064 27.9402 3.09064 24.9094C3.09064 21.8786 3.66576 19.0303 4.816 16.3647C5.96624 13.6991 7.52728 11.3803 9.49913 9.40849C11.471 7.43665 13.7897 5.8756 16.4553 4.72536C19.121 3.57512 21.9692 3 25 3C28.0308 3 30.879 3.57512 33.5447 4.72536C36.2103 5.8756 38.529 7.43665 40.5009 9.40849C42.4727 11.3803 44.0338 13.6991 45.184 16.3647C46.3342 19.0303 46.9094 21.8786 46.9094 24.9094V28.0862C46.9094 30.2406 46.1699 32.0755 44.691 33.5909C43.2122 35.1063 41.3955 35.864 39.2411 35.864C37.963 35.864 36.758 35.5902 35.626 35.0424C34.4941 34.4947 33.5447 33.7096 32.7778 32.6872C31.7189 33.7461 30.523 34.5404 29.1902 35.0698C27.8573 35.5993 26.4606 35.864 25 35.864C21.9692 35.864 19.3857 34.796 17.2496 32.6598C15.1134 30.5236 14.0453 27.9402 14.0453 24.9094C14.0453 21.8786 15.1134 19.2951 17.2496 17.1589C19.3857 15.0228 21.9692 13.9547 25 13.9547C28.0308 13.9547 30.6143 15.0228 32.7504 17.1589C34.8866 19.2951 35.9547 21.8786 35.9547 24.9094V28.0862C35.9547 29.0356 36.2651 29.839 36.8858 30.4962C37.5066 31.1535 38.2917 31.4822 39.2411 31.4822C40.1905 31.4822 40.9756 31.1535 41.5963 30.4962C42.2171 29.839 42.5275 29.0356 42.5275 28.0862V24.9094C42.5275 20.0163 40.8295 15.8718 37.4336 12.4758C34.0376 9.07985 29.8931 7.38187 25 7.38187C20.1069 7.38187 15.9624 9.07985 12.5664 12.4758C9.17049 15.8718 7.47251 20.0163 7.47251 24.9094C7.47251 29.8025 9.17049 33.947 12.5664 37.3429C15.9624 40.7389 20.1069 42.4369 25 42.4369H35.9547V46.8187H25ZM25 31.4822C26.8258 31.4822 28.3777 30.8431 29.6557 29.5651C30.9338 28.2871 31.5728 26.7351 31.5728 24.9094C31.5728 23.0836 30.9338 21.5317 29.6557 20.2536C28.3777 18.9756 26.8258 18.3366 25 18.3366C23.1742 18.3366 21.6223 18.9756 20.3443 20.2536C19.0662 21.5317 18.4272 23.0836 18.4272 24.9094C18.4272 26.7351 19.0662 28.2871 20.3443 29.5651C21.6223 30.8431 23.1742 31.4822 25 31.4822Z" fill="#1D4F91"/>
</svg>
